<svg width="328" height="53" viewBox="0 0 328 53" fill="none" xmlns="http://www.w3.org/2000/svg">
<g filter="url(#filter0_d_88_612)">
<rect x="4.5" width="319" height="45" rx="6" fill="#FEE500"/>
<g clip-path="url(#clip0_88_612)">
<path fill-rule="evenodd" clip-rule="evenodd" d="M27.5 14.1C22.5292 14.1 18.5 17.2129 18.5 21.0523C18.5 23.44 20.0584 25.5449 22.4315 26.7969L21.433 30.4445C21.3448 30.7668 21.7134 31.0237 21.9965 30.8369L26.3733 27.9482C26.7427 27.9838 27.1181 28.0046 27.5 28.0046C32.4705 28.0046 36.4999 24.8918 36.4999 21.0523C36.4999 17.2129 32.4705 14.1 27.5 14.1Z" fill="black"/>
</g>
<path d="M129.234 16.934C129.22 21.204 127.274 24.06 123.704 25.936L122.78 24.9C124.586 24.074 126.098 22.744 126.952 21.022L123.298 21.414L123.074 20.168L127.428 19.846C127.582 19.286 127.694 18.712 127.736 18.096H123.704V16.934H129.234ZM132.608 15.632V20.504H134.54V21.694H132.608V28.106H131.166V15.632H132.608ZM141.347 16.934C141.333 21.204 139.387 24.06 135.817 25.936L134.893 24.9C136.699 24.074 138.211 22.744 139.065 21.022L135.411 21.414L135.187 20.168L139.541 19.846C139.695 19.286 139.807 18.712 139.849 18.096H135.817V16.934H141.347ZM144.721 15.632V20.504H146.653V21.694H144.721V28.106H143.279V15.632H144.721ZM158.417 26.51H147.147V25.362H152.047V23.234C149.737 23.01 148.267 21.694 148.267 19.832C148.267 17.774 150.073 16.402 152.775 16.402C155.519 16.402 157.311 17.774 157.311 19.832C157.311 21.708 155.813 23.024 153.475 23.248V25.362H158.417V26.51ZM155.869 19.846C155.869 18.516 154.651 17.578 152.775 17.578C150.941 17.578 149.709 18.516 149.709 19.846C149.709 21.162 150.941 22.058 152.775 22.058C154.637 22.058 155.869 21.162 155.869 19.846ZM169.438 23.29H165.588V25.376H170.53V26.524H159.26V25.376H164.16V23.29H160.702V19.258H167.646V17.648H160.66V16.5H169.074V20.42H162.144V22.128H169.438V23.29ZM185.327 28.106H183.899V15.632H185.327V28.106ZM182.653 24.144L181.799 25.222C180.735 24.536 179.405 22.996 178.943 21.624C178.523 23.108 177.277 24.676 175.905 25.502L175.023 24.452C176.955 23.192 178.187 21.134 178.187 18.754V16.71H179.671V18.67C179.671 21.064 180.833 22.996 182.653 24.144ZM187.318 17.62V16.43H193.884V17.62H191.392V17.648C191.392 19.482 192.778 20.84 194.22 21.316L193.436 22.464C192.386 22.044 191.196 21.064 190.65 19.888C190.286 21.12 188.956 22.324 187.696 22.8L186.856 21.694C188.606 21.036 189.922 19.552 189.922 17.69V17.62H187.318ZM188.718 23.598H196.866V28.12H195.424V24.732H188.718V23.598ZM198.686 19.846H196.852V22.94H195.41V15.632H196.852V18.656H198.686V19.846ZM205.801 22.968C205.801 24.466 204.611 25.628 202.833 25.628C201.041 25.628 199.837 24.508 199.837 22.968C199.837 21.484 201.041 20.308 202.833 20.308C204.611 20.308 205.801 21.442 205.801 22.968ZM204.387 22.968C204.387 22.086 203.729 21.484 202.833 21.484C201.923 21.484 201.279 22.086 201.279 22.968C201.279 23.836 201.923 24.452 202.833 24.452C203.799 24.452 204.387 23.836 204.387 22.968ZM206.431 19.706H199.179V18.544H206.431V19.706ZM200.943 17.536V16.36H204.723V17.536H200.943ZM208.965 15.632V20.756H210.897V21.96H208.965V28.106H207.523V15.632H208.965ZM221.667 28.106H220.239V15.632H221.667V28.106ZM217.845 16.948C217.761 20.812 215.829 23.794 212.231 25.768L211.335 24.676C214.205 23.36 216.067 20.742 216.305 18.124H212.063V16.948H217.845Z" fill="black" fill-opacity="0.85"/>
</g>
<defs>
<filter id="filter0_d_88_612" x="0.5" y="0" width="327" height="53" filterUnits="userSpaceOnUse" color-interpolation-filters="sRGB">
<feFlood flood-opacity="0" result="BackgroundImageFix"/>
<feColorMatrix in="SourceAlpha" type="matrix" values="0 0 0 0 0 0 0 0 0 0 0 0 0 0 0 0 0 0 127 0" result="hardAlpha"/>
<feOffset dy="4"/>
<feGaussianBlur stdDeviation="2"/>
<feComposite in2="hardAlpha" operator="out"/>
<feColorMatrix type="matrix" values="0 0 0 0 0 0 0 0 0 0 0 0 0 0 0 0 0 0 0.25 0"/>
<feBlend mode="normal" in2="BackgroundImageFix" result="effect1_dropShadow_88_612"/>
<feBlend mode="normal" in="SourceGraphic" in2="effect1_dropShadow_88_612" result="shape"/>
</filter>
<clipPath id="clip0_88_612">
<rect width="17.9999" height="18" fill="white" transform="translate(18.5 13.5)"/>
</clipPath>
</defs>
</svg>
